<svg xmlns="http://www.w3.org/2000/svg" viewBox="0 0 1120 72" role="img" aria-label="MilitiaCelestial topics">
  <rect width="1120" height="72" rx="12" fill="#07111F"/>
  <g font-family="ui-sans-serif, system-ui, sans-serif" font-size="13" font-weight="600">
    <rect x="20" y="20" width="78" height="32" rx="16" fill="#101A30" stroke="#E2C57A"/>
    <text x="59" y="41" text-anchor="middle" fill="#E8EEF8">sigma</text>
    <rect x="108" y="20" width="86" height="32" rx="16" fill="#101A30" stroke="#8FB4E8"/>
    <text x="151" y="41" text-anchor="middle" fill="#E8EEF8">wazuh</text>
    <rect x="204" y="20" width="92" height="32" rx="16" fill="#101A30" stroke="#E2C57A"/>
    <text x="250" y="41" text-anchor="middle" fill="#E8EEF8">pysigma</text>
    <rect x="306" y="20" width="70" height="32" rx="16" fill="#101A30" stroke="#8FB4E8"/>
    <text x="341" y="41" text-anchor="middle" fill="#E8EEF8">siem</text>
    <rect x="386" y="20" width="186" height="32" rx="16" fill="#101A30" stroke="#E2C57A"/>
    <text x="479" y="41" text-anchor="middle" fill="#E8EEF8">detection-engineering</text>
    <rect x="582" y="20" width="128" height="32" rx="16" fill="#101A30" stroke="#8FB4E8"/>
    <text x="646" y="41" text-anchor="middle" fill="#E8EEF8">cybersecurity</text>
    <rect x="720" y="20" width="80" height="32" rx="16" fill="#101A30" stroke="#E2C57A"/>
    <text x="760" y="41" text-anchor="middle" fill="#E8EEF8">python</text>
    <rect x="810" y="20" width="148" height="32" rx="16" fill="#101A30" stroke="#8FB4E8"/>
    <text x="884" y="41" text-anchor="middle" fill="#E8EEF8">threat-detection</text>
    <rect x="968" y="20" width="132" height="32" rx="16" fill="#101A30" stroke="#E2C57A"/>
    <text x="1034" y="41" text-anchor="middle" fill="#E8EEF8">mitre-attack</text>
  </g>
</svg>
